<svg width="733" height="683" viewBox="0 0 733 683" fill="none" xmlns="http://www.w3.org/2000/svg">
<path d="M72.8494 643C62.945 643 54.9666 640.198 48.9139 634.595C42.9713 628.882 40 621.301 40 611.852V556.148C40 546.699 42.9713 539.173 48.9139 533.57C54.9666 527.857 62.945 525 72.8494 525C82.7537 525 90.7322 527.857 96.7849 533.57C102.838 539.283 105.864 546.864 105.864 556.313V562.575C105.864 563.125 105.644 563.619 105.204 564.059C104.873 564.388 104.433 564.553 103.883 564.553H84.5695C84.0193 564.553 83.5241 564.388 83.0839 564.059C82.7537 563.619 82.5886 563.125 82.5886 562.575V555.983C82.5886 552.687 81.7083 550.05 79.9475 548.073C78.1867 545.985 75.8207 544.941 72.8494 544.941C69.9881 544.941 67.6771 545.985 65.9163 548.073C64.1556 550.05 63.2752 552.687 63.2752 555.983V612.017C63.2752 615.313 64.1556 618.005 65.9163 620.092C67.6771 622.07 69.9881 623.059 72.8494 623.059C75.8207 623.059 78.1867 622.07 79.9475 620.092C81.7083 618.005 82.5886 615.313 82.5886 612.017V598.832C82.5886 598.283 82.3135 598.008 81.7633 598.008H74.5001C73.9499 598.008 73.4546 597.844 73.0145 597.514C72.6843 597.074 72.5192 596.58 72.5192 596.031V581.363C72.5192 580.814 72.6843 580.374 73.0145 580.045C73.4546 579.605 73.9499 579.385 74.5001 579.385H103.883C104.433 579.385 104.873 579.605 105.204 580.045C105.644 580.374 105.864 580.814 105.864 581.363V611.852C105.864 621.301 102.838 628.882 96.7849 634.595C90.7322 640.198 82.7537 643 72.8494 643Z" fill="white"/>
<path d="M184.075 641.682C182.864 641.682 182.094 641.132 181.764 640.034L169.053 594.547C168.833 594.108 168.558 593.888 168.228 593.888H162.615C162.065 593.888 161.79 594.163 161.79 594.712V639.704C161.79 640.253 161.57 640.748 161.129 641.187C160.799 641.517 160.359 641.682 159.809 641.682H140.495C139.945 641.682 139.45 641.517 139.01 641.187C138.68 640.748 138.515 640.253 138.515 639.704V528.296C138.515 527.747 138.68 527.307 139.01 526.978C139.45 526.538 139.945 526.318 140.495 526.318H173.84C179.893 526.318 185.285 527.802 190.017 530.768C194.749 533.625 198.381 537.69 200.912 542.964C203.553 548.237 204.874 554.28 204.874 561.092C204.874 567.574 203.608 573.288 201.077 578.232C198.656 583.176 195.244 587.021 190.843 589.768C190.622 589.878 190.457 590.043 190.347 590.263C190.237 590.372 190.237 590.537 190.347 590.757L205.534 639.374L205.699 640.034C205.699 641.132 205.094 641.682 203.883 641.682H184.075ZM162.615 546.26C162.065 546.26 161.79 546.534 161.79 547.084V575.265C161.79 575.815 162.065 576.089 162.615 576.089H170.043C173.455 576.089 176.206 574.771 178.297 572.134C180.498 569.387 181.598 565.762 181.598 561.257C181.598 556.642 180.498 553.017 178.297 550.38C176.206 547.633 173.455 546.26 170.043 546.26H162.615Z" fill="white"/>
<path d="M285.361 641.682C284.04 641.682 283.325 641.077 283.215 639.869L280.573 624.047C280.573 623.498 280.243 623.223 279.583 623.223H258.619C257.959 623.223 257.628 623.498 257.628 624.047L254.987 639.869C254.877 641.077 254.162 641.682 252.841 641.682H233.528C232.097 641.682 231.547 640.967 231.877 639.539L256.143 528.131C256.363 526.923 257.078 526.318 258.289 526.318H280.573C281.784 526.318 282.499 526.923 282.719 528.131L306.82 639.539L306.985 640.198C306.985 641.187 306.38 641.682 305.169 641.682H285.361ZM260.93 604.436C260.93 604.985 261.15 605.26 261.59 605.26H276.447C276.997 605.26 277.217 604.985 277.107 604.436L269.349 559.444C269.238 559.115 269.073 558.95 268.853 558.95C268.633 558.95 268.468 559.115 268.358 559.444L260.93 604.436Z" fill="white"/>
<path d="M396.689 544.282C396.689 544.831 396.469 545.326 396.029 545.765C395.698 546.095 395.258 546.26 394.708 546.26H360.373C359.823 546.26 359.548 546.534 359.548 547.084V573.123C359.548 573.672 359.823 573.947 360.373 573.947H380.017C380.567 573.947 381.007 574.167 381.337 574.606C381.777 574.936 381.997 575.375 381.997 575.925V591.911C381.997 592.46 381.777 592.954 381.337 593.394C381.007 593.723 380.567 593.888 380.017 593.888H360.373C359.823 593.888 359.548 594.163 359.548 594.712V639.704C359.548 640.253 359.328 640.748 358.887 641.187C358.557 641.517 358.117 641.682 357.567 641.682H338.253C337.703 641.682 337.208 641.517 336.768 641.187C336.438 640.748 336.272 640.253 336.272 639.704V528.296C336.272 527.747 336.438 527.307 336.768 526.978C337.208 526.538 337.703 526.318 338.253 526.318H394.708C395.258 526.318 395.698 526.538 396.029 526.978C396.469 527.307 396.689 527.747 396.689 528.296V544.282Z" fill="white"/>
<path d="M485.976 544.282C485.976 544.831 485.756 545.326 485.316 545.765C484.986 546.095 484.546 546.26 483.995 546.26H449.66C449.11 546.26 448.835 546.534 448.835 547.084V573.123C448.835 573.672 449.11 573.947 449.66 573.947H469.304C469.854 573.947 470.294 574.167 470.624 574.606C471.065 574.936 471.285 575.375 471.285 575.925V591.911C471.285 592.46 471.065 592.954 470.624 593.394C470.294 593.723 469.854 593.888 469.304 593.888H449.66C449.11 593.888 448.835 594.163 448.835 594.712V639.704C448.835 640.253 448.615 640.748 448.175 641.187C447.845 641.517 447.404 641.682 446.854 641.682H427.541C426.99 641.682 426.495 641.517 426.055 641.187C425.725 640.748 425.56 640.253 425.56 639.704V528.296C425.56 527.747 425.725 527.307 426.055 526.978C426.495 526.538 426.99 526.318 427.541 526.318H483.995C484.546 526.318 484.986 526.538 485.316 526.978C485.756 527.307 485.976 527.747 485.976 528.296V544.282Z" fill="white"/>
<path d="M516.828 641.682C516.278 641.682 515.782 641.517 515.342 641.187C515.012 640.748 514.847 640.253 514.847 639.704V528.296C514.847 527.747 515.012 527.307 515.342 526.978C515.782 526.538 516.278 526.318 516.828 526.318H536.141C536.692 526.318 537.132 526.538 537.462 526.978C537.902 527.307 538.122 527.747 538.122 528.296V639.704C538.122 640.253 537.902 640.748 537.462 641.187C537.132 641.517 536.692 641.682 536.141 641.682H516.828Z" fill="white"/>
<path d="M636.748 526.318C637.298 526.318 637.738 526.538 638.068 526.978C638.509 527.307 638.729 527.747 638.729 528.296V544.282C638.729 544.831 638.509 545.326 638.068 545.765C637.738 546.095 637.298 546.26 636.748 546.26H616.114C615.564 546.26 615.288 546.534 615.288 547.084V639.704C615.288 640.253 615.068 640.748 614.628 641.187C614.298 641.517 613.858 641.682 613.308 641.682H593.994C593.444 641.682 592.949 641.517 592.508 641.187C592.178 640.748 592.013 640.253 592.013 639.704V547.084C592.013 546.534 591.738 546.26 591.188 546.26H571.379C570.829 546.26 570.334 546.095 569.894 545.765C569.563 545.326 569.398 544.831 569.398 544.282V528.296C569.398 527.747 569.563 527.307 569.894 526.978C570.334 526.538 570.829 526.318 571.379 526.318H636.748Z" fill="white"/>
<path d="M671.706 641.682C671.155 641.682 670.66 641.517 670.22 641.187C669.89 640.748 669.725 640.253 669.725 639.704V528.296C669.725 527.747 669.89 527.307 670.22 526.978C670.66 526.538 671.155 526.318 671.706 526.318H691.019C691.569 526.318 692.01 526.538 692.34 526.978C692.78 527.307 693 527.747 693 528.296V639.704C693 640.253 692.78 640.748 692.34 641.187C692.01 641.517 691.569 641.682 691.019 641.682H671.706Z" fill="white"/>
<path fill-rule="evenodd" clip-rule="evenodd" d="M539.841 252.819C544.401 260.9 547.341 270.575 547.341 283.365C547.341 308.195 540.447 323.649 533.832 336.82C533.338 337.805 532.849 338.77 532.368 339.719L532.323 339.808C526.44 351.426 521.728 360.733 521.728 374.548C521.728 386.306 523.303 399.355 524.798 411.735L524.798 411.737C525.386 416.61 525.962 421.38 526.425 425.927C527.21 433.646 527.694 441.034 527 446.626C526.658 449.38 525.95 452.476 524.252 455.039C522.287 458.004 519.129 460 515.132 460C490.607 460 470.305 450.612 455.735 438.428C444.804 429.287 436.739 418.252 432.666 407.97C427.216 413.494 420.347 419.116 410.689 423.74C397.009 430.29 378.264 434.595 350.793 434.595C314.258 434.595 274.457 424.331 242.858 404.916C211.242 385.49 187.137 356.401 183.936 318.689C180.502 278.238 192.496 252.112 205.31 232.876C208.469 228.134 211.664 223.83 214.612 219.912C215.055 219.324 215.491 218.746 215.919 218.178C218.38 214.914 220.597 211.975 222.548 209.148C227.214 202.384 229.411 197.536 229.411 193.087C229.411 190.14 228.184 187.651 224.982 184.266C223.336 182.527 221.368 180.758 218.989 178.634L218.779 178.446C216.515 176.426 213.954 174.14 211.381 171.555C200.323 160.447 189.505 144.225 189.505 113.244C189.505 98.0469 189.882 86.3029 190.7 77.443C191.498 68.8076 192.768 62.1248 195.008 57.6121C196.172 55.2679 197.87 52.9441 200.447 51.4597C203.183 49.883 206.089 49.7215 208.663 50.2811C211.068 50.8038 213.255 51.959 215.115 53.1702C217.02 54.411 218.947 55.9558 220.848 57.6044C223.541 59.9407 226.258 62.52 229.113 65.2301C234.76 70.5898 240.946 76.4615 248.552 81.978C259.601 89.9914 272.308 96.088 287.127 96.088C318.311 96.088 336.376 83.2425 355.631 69.2976L356.229 68.8641C375.457 54.936 396.076 40 430.672 40C464.259 40 488.21 47.8845 503.841 61.4515C519.599 75.1298 525.984 93.7847 525.984 113.244C525.984 129.672 520.193 141.842 514.985 152.786L514.75 153.279C509.445 164.431 504.796 174.438 504.796 188.138C504.796 200.114 507.237 208.572 510.705 215.274C514.24 222.103 518.989 227.429 524.312 233.179C524.622 233.514 524.934 233.85 525.248 234.189C530.195 239.521 535.665 245.416 539.841 252.819ZM319.185 246.206C319.185 249.138 319.256 251.952 319.394 254.652C277.083 269.75 233.904 290.354 209.116 303.37C209.059 302.143 209.031 300.904 209.031 299.654C209.031 254.473 240.339 227.311 261.729 208.753C272.828 199.123 281.257 191.811 281.257 185.499C281.257 178.763 273.559 175.304 263.434 170.756C245.786 162.827 220.766 151.585 216.286 113.904C212.844 84.9462 214.301 86.5845 222.947 96.3054C232.525 107.074 250.924 127.761 281.257 127.761C312.311 127.761 341.646 111.524 368.749 96.5223C392.019 83.6424 413.643 71.6732 433.296 71.6732C475.841 71.6732 493.65 99.3873 493.65 116.214C493.65 122.077 489.044 128.862 483.671 136.779C473.625 151.579 460.895 170.332 470.564 194.407C474.47 204.131 373.932 221.791 373.932 216.512C373.932 211.331 377.667 201.767 381.551 191.822C388.054 175.172 394.973 157.455 385.475 157.455C370.304 157.455 319.185 209.254 319.185 246.206ZM368.325 317.141C352.228 317.141 325.084 309.324 320.014 262.507C281.383 279.486 237.73 302.76 211.161 317.825C224.807 374.392 301.174 402.922 357.442 402.922C401.542 402.922 428.052 374.073 440.206 359.807C441.003 358.872 442.64 359.432 442.814 360.649C445.663 380.541 469.511 424.698 493.65 424.698C498.837 424.698 497.882 422.225 495.46 415.958C492.801 409.075 488.373 397.615 488.373 379.827C488.373 363.554 494.65 348.795 501.192 333.411C508.312 316.668 515.747 299.186 515.747 278.209C515.747 237.958 470.564 228.06 444.51 228.06C434.493 228.06 422.069 230.151 409.692 233.371C409.586 233.99 401.892 236.156 392.63 238.525C371.87 245.678 354.803 254.935 354.803 261.053C354.803 265.87 364.536 266.55 375.642 267.325C390.396 268.355 407.572 269.554 407.572 280.848C407.572 300.644 388.443 317.141 368.325 317.141Z" fill="white"/>
</svg>
