<svg width="918" height="319" viewBox="0 0 918 319" fill="none" xmlns="http://www.w3.org/2000/svg">
<path d="M317.68 213C308.731 213 301.523 210.46 296.054 205.378C290.685 200.198 288 193.324 288 184.756V134.244C288 125.676 290.685 118.852 296.054 113.771C301.523 108.59 308.731 106 317.68 106C326.629 106 333.838 108.59 339.306 113.771C344.775 118.952 347.509 125.826 347.509 134.394V140.073C347.509 140.571 347.311 141.019 346.913 141.418C346.615 141.716 346.217 141.866 345.72 141.866H328.27C327.772 141.866 327.325 141.716 326.927 141.418C326.629 141.019 326.48 140.571 326.48 140.073V134.095C326.48 131.106 325.684 128.715 324.093 126.922C322.503 125.029 320.365 124.082 317.68 124.082C315.095 124.082 313.007 125.029 311.416 126.922C309.825 128.715 309.03 131.106 309.03 134.095V184.905C309.03 187.894 309.825 190.335 311.416 192.228C313.007 194.021 315.095 194.918 317.68 194.918C320.365 194.918 322.503 194.021 324.093 192.228C325.684 190.335 326.48 187.894 326.48 184.905V172.95C326.48 172.452 326.231 172.203 325.734 172.203H319.172C318.674 172.203 318.227 172.053 317.829 171.754C317.531 171.356 317.382 170.907 317.382 170.409V157.109C317.382 156.611 317.531 156.212 317.829 155.913C318.227 155.515 318.674 155.316 319.172 155.316H345.72C346.217 155.316 346.615 155.515 346.913 155.913C347.311 156.212 347.509 156.611 347.509 157.109V184.756C347.509 193.324 344.775 200.198 339.306 205.378C333.838 210.46 326.629 213 317.68 213Z" fill="#333333"/>
<path d="M418.175 211.804C417.081 211.804 416.385 211.306 416.086 210.31L404.602 169.064C404.403 168.666 404.155 168.466 403.856 168.466H398.786C398.288 168.466 398.04 168.716 398.04 169.214V210.011C398.04 210.509 397.841 210.958 397.443 211.356C397.145 211.655 396.747 211.804 396.25 211.804H378.8C378.303 211.804 377.855 211.655 377.458 211.356C377.159 210.958 377.01 210.509 377.01 210.011V108.989C377.01 108.491 377.159 108.092 377.458 107.793C377.855 107.395 378.303 107.196 378.8 107.196H408.927C414.396 107.196 419.268 108.54 423.544 111.23C427.819 113.821 431.101 117.507 433.387 122.289C435.774 127.071 436.967 132.551 436.967 138.728C436.967 144.606 435.824 149.786 433.537 154.27C431.349 158.753 428.267 162.24 424.29 164.73C424.091 164.83 423.942 164.98 423.842 165.179C423.743 165.278 423.743 165.428 423.842 165.627L437.564 209.712L437.713 210.31C437.713 211.306 437.166 211.804 436.072 211.804H418.175ZM398.786 125.278C398.288 125.278 398.04 125.527 398.04 126.025V151.58C398.04 152.078 398.288 152.327 398.786 152.327H405.497C408.579 152.327 411.065 151.131 412.954 148.74C414.943 146.25 415.937 142.962 415.937 138.877C415.937 134.693 414.943 131.405 412.954 129.014C411.065 126.523 408.579 125.278 405.497 125.278H398.786Z" fill="#333333"/>
<path d="M509.689 211.804C508.496 211.804 507.849 211.257 507.75 210.161L505.363 195.814C505.363 195.316 505.065 195.067 504.469 195.067H485.527C484.93 195.067 484.632 195.316 484.632 195.814L482.246 210.161C482.146 211.257 481.5 211.804 480.307 211.804H462.857C461.564 211.804 461.067 211.157 461.365 209.862L483.29 108.839C483.489 107.743 484.135 107.196 485.229 107.196H505.363C506.457 107.196 507.103 107.743 507.302 108.839L529.078 209.862L529.227 210.46C529.227 211.356 528.68 211.804 527.586 211.804H509.689ZM487.615 178.031C487.615 178.529 487.814 178.778 488.212 178.778H501.635C502.132 178.778 502.331 178.529 502.231 178.031L495.221 137.233C495.122 136.934 494.973 136.785 494.774 136.785C494.575 136.785 494.426 136.934 494.327 137.233L487.615 178.031Z" fill="#333333"/>
<path d="M610.276 123.485C610.276 123.983 610.077 124.431 609.68 124.83C609.381 125.128 608.984 125.278 608.487 125.278H577.464C576.967 125.278 576.718 125.527 576.718 126.025V149.637C576.718 150.135 576.967 150.384 577.464 150.384H595.213C595.71 150.384 596.107 150.583 596.406 150.982C596.803 151.281 597.002 151.679 597.002 152.177V166.673C597.002 167.171 596.803 167.62 596.406 168.018C596.107 168.317 595.71 168.466 595.213 168.466H577.464C576.967 168.466 576.718 168.716 576.718 169.214V210.011C576.718 210.509 576.52 210.958 576.122 211.356C575.823 211.655 575.426 211.804 574.929 211.804H557.478C556.981 211.804 556.534 211.655 556.136 211.356C555.838 210.958 555.689 210.509 555.689 210.011V108.989C555.689 108.491 555.838 108.092 556.136 107.793C556.534 107.395 556.981 107.196 557.478 107.196H608.487C608.984 107.196 609.381 107.395 609.68 107.793C610.077 108.092 610.276 108.491 610.276 108.989V123.485Z" fill="#333333"/>
<path d="M690.949 123.485C690.949 123.983 690.751 124.431 690.353 124.83C690.055 125.128 689.657 125.278 689.16 125.278H658.137C657.64 125.278 657.391 125.527 657.391 126.025V149.637C657.391 150.135 657.64 150.384 658.137 150.384H675.886C676.383 150.384 676.78 150.583 677.079 150.982C677.477 151.281 677.675 151.679 677.675 152.177V166.673C677.675 167.171 677.477 167.62 677.079 168.018C676.78 168.317 676.383 168.466 675.886 168.466H658.137C657.64 168.466 657.391 168.716 657.391 169.214V210.011C657.391 210.509 657.193 210.958 656.795 211.356C656.497 211.655 656.099 211.804 655.602 211.804H638.152C637.654 211.804 637.207 211.655 636.809 211.356C636.511 210.958 636.362 210.509 636.362 210.011V108.989C636.362 108.491 636.511 108.092 636.809 107.793C637.207 107.395 637.654 107.196 638.152 107.196H689.16C689.657 107.196 690.055 107.395 690.353 107.793C690.751 108.092 690.949 108.491 690.949 108.989V123.485Z" fill="#333333"/>
<path d="M718.825 211.804C718.327 211.804 717.88 211.655 717.482 211.356C717.184 210.958 717.035 210.509 717.035 210.011V108.989C717.035 108.491 717.184 108.092 717.482 107.793C717.88 107.395 718.327 107.196 718.825 107.196H736.275C736.772 107.196 737.17 107.395 737.468 107.793C737.866 108.092 738.065 108.491 738.065 108.989V210.011C738.065 210.509 737.866 210.958 737.468 211.356C737.17 211.655 736.772 211.804 736.275 211.804H718.825Z" fill="#333333"/>
<path d="M827.175 107.196C827.672 107.196 828.07 107.395 828.368 107.793C828.766 108.092 828.965 108.491 828.965 108.989V123.485C828.965 123.983 828.766 124.431 828.368 124.83C828.07 125.128 827.672 125.278 827.175 125.278H808.532C808.034 125.278 807.786 125.527 807.786 126.025V210.011C807.786 210.509 807.587 210.958 807.189 211.356C806.891 211.655 806.493 211.804 805.996 211.804H788.546C788.049 211.804 787.601 211.655 787.204 211.356C786.905 210.958 786.756 210.509 786.756 210.011V126.025C786.756 125.527 786.508 125.278 786.01 125.278H768.113C767.616 125.278 767.168 125.128 766.771 124.83C766.472 124.431 766.323 123.983 766.323 123.485V108.989C766.323 108.491 766.472 108.092 766.771 107.793C767.168 107.395 767.616 107.196 768.113 107.196H827.175Z" fill="#333333"/>
<path d="M858.76 211.804C858.263 211.804 857.816 211.655 857.418 211.356C857.12 210.958 856.97 210.509 856.97 210.011V108.989C856.97 108.491 857.12 108.092 857.418 107.793C857.816 107.395 858.263 107.196 858.76 107.196H876.21C876.707 107.196 877.105 107.395 877.403 107.793C877.801 108.092 878 108.491 878 108.989V210.011C878 210.509 877.801 210.958 877.403 211.356C877.105 211.655 876.707 211.804 876.21 211.804H858.76Z" fill="#333333"/>
<path fill-rule="evenodd" clip-rule="evenodd" d="M241.348 161.104C243.928 165.703 245.592 171.208 245.592 178.486C245.592 192.616 241.691 201.41 237.948 208.905C237.668 209.465 237.391 210.014 237.119 210.555L237.094 210.605C233.765 217.216 231.098 222.512 231.098 230.374C231.098 237.064 231.989 244.49 232.835 251.535L232.835 251.536C233.168 254.309 233.494 257.023 233.756 259.611C234.2 264.004 234.474 268.207 234.081 271.39C233.888 272.957 233.487 274.719 232.526 276.177C231.415 277.864 229.627 279 227.365 279C213.487 279 201.999 273.658 193.754 266.725C187.568 261.523 183.004 255.243 180.699 249.392C177.616 252.536 173.729 255.735 168.263 258.366C160.522 262.093 149.915 264.544 134.369 264.544C113.695 264.544 91.1719 258.703 73.2907 247.654C55.4 236.6 41.7594 220.047 39.948 198.587C38.0052 175.569 44.7918 160.702 52.0433 149.756C53.831 147.057 55.639 144.608 57.3073 142.379C57.5579 142.044 57.8044 141.715 58.0467 141.392C59.4394 139.535 60.6939 137.862 61.7976 136.253C64.4386 132.404 65.6817 129.646 65.6817 127.114C65.6817 125.437 64.9874 124.02 63.175 122.094C62.2438 121.104 61.1303 120.098 59.7841 118.889L59.6649 118.782C58.3839 117.633 56.9349 116.332 55.4785 114.861C49.221 108.54 43.0996 99.3089 43.0996 81.6795C43.0996 73.0315 43.3131 66.3486 43.776 61.3069C44.2271 56.3929 44.9461 52.5901 46.2138 50.0221C46.8723 48.6882 47.833 47.3658 49.2911 46.5211C50.8399 45.6239 52.4843 45.532 53.9409 45.8504C55.3013 46.1479 56.5393 46.8052 57.5917 47.4944C58.6698 48.2005 59.7602 49.0796 60.8357 50.0177C62.3598 51.3472 63.8974 52.8149 65.5131 54.3571C68.7084 57.4071 72.2089 60.7484 76.5131 63.8875C82.7655 68.4475 89.9561 71.9167 98.3417 71.9167C115.989 71.9167 126.211 64.6071 137.107 56.6718L137.446 56.4251C148.326 48.4993 159.994 40 179.571 40C198.577 40 212.131 44.4866 220.976 52.2069C229.894 59.9905 233.507 70.606 233.507 81.6795C233.507 91.0274 230.229 97.953 227.282 104.181L227.15 104.461C224.148 110.807 221.517 116.502 221.517 124.298C221.517 131.113 222.898 135.925 224.861 139.739C226.861 143.625 229.548 146.656 232.56 149.928C232.736 150.119 232.912 150.31 233.09 150.503C235.889 153.537 238.985 156.892 241.348 161.104ZM116.483 157.341C116.483 159.009 116.523 160.611 116.601 162.147C92.6582 170.739 68.2241 182.464 54.197 189.87C54.1649 189.172 54.1487 188.467 54.1487 187.756C54.1487 162.045 71.8652 146.589 83.9698 136.028C90.2506 130.549 95.0204 126.387 95.0204 122.796C95.0204 118.963 90.6642 116.995 84.9347 114.406C74.9481 109.894 60.7893 103.497 58.2545 82.055C56.3066 65.5765 57.1312 66.5088 62.0237 72.0405C67.4435 78.1683 77.8554 89.9403 95.0204 89.9403C112.593 89.9403 129.193 80.7005 144.53 72.1639C157.698 64.8346 169.935 58.0236 181.056 58.0236C205.131 58.0236 215.209 73.7942 215.209 83.3692C215.209 86.7059 212.603 90.567 209.562 95.0716C203.877 103.494 196.674 114.165 202.145 127.865C204.356 133.399 147.463 143.448 147.463 140.444C147.463 137.495 149.577 132.053 151.775 126.394C155.454 116.919 159.37 106.837 153.995 106.837C145.41 106.837 116.483 136.313 116.483 157.341ZM144.29 197.706C135.181 197.706 119.821 193.258 116.952 166.617C95.0915 176.279 70.3889 189.523 55.3541 198.096C63.0763 230.285 106.291 246.52 138.132 246.52C163.087 246.52 178.089 230.104 184.966 221.986C185.418 221.453 186.344 221.772 186.442 222.465C188.054 233.784 201.55 258.911 215.209 258.911C218.144 258.911 217.604 257.504 216.234 253.938C214.729 250.021 212.223 243.5 212.223 233.378C212.223 224.118 215.775 215.719 219.477 206.965C223.506 197.437 227.714 187.489 227.714 175.552C227.714 152.647 202.145 147.015 187.402 147.015C181.734 147.015 174.703 148.205 167.699 150.038C167.639 150.39 163.285 151.622 158.044 152.97C146.296 157.041 136.639 162.308 136.639 165.789C136.639 168.531 142.146 168.918 148.431 169.359C156.78 169.945 166.499 170.627 166.499 177.054C166.499 188.319 155.675 197.706 144.29 197.706Z" fill="#333333"/>
</svg>
