<svg width="572" height="581" viewBox="0 0 572 581" fill="none" xmlns="http://www.w3.org/2000/svg">
<path d="M382.3 92.8032L532 40L463.028 251.481C463.918 251.388 464.821 251.34 465.735 251.34C479.872 251.34 491.333 262.811 491.333 276.962C491.333 291.113 479.872 302.584 465.735 302.584C459.111 302.584 453.075 300.066 448.53 295.935L433.489 342.053C440.583 350.491 444.856 361.382 444.856 373.273C444.856 396.084 429.129 415.219 407.935 420.406L368.605 541L313.245 485.833C307.933 493.476 299.093 498.478 289.086 498.478C272.843 498.478 259.675 485.298 259.675 469.04C259.675 459.07 264.626 450.258 272.201 444.933L209.377 382.328C207.071 383.621 204.411 384.358 201.579 384.358C192.756 384.358 185.603 377.199 185.603 368.367C185.603 365.558 186.327 362.918 187.597 360.624L40 213.542L290.249 125.272C285.855 122.637 282.914 117.825 282.914 112.324C282.914 103.994 289.661 97.2417 297.983 97.2417C306.305 97.2417 313.051 103.994 313.051 112.324C313.051 114.164 312.722 115.928 312.119 117.558L339.037 108.063C342.196 96.1824 353.018 87.429 365.882 87.429C372.024 87.429 377.701 89.4245 382.3 92.8032Z" fill="#FF63D0"/>
<path d="M454.479 312.397C457.186 312.397 459.38 310.201 459.38 307.491C459.38 304.781 457.186 302.584 454.479 302.584C451.771 302.584 449.577 304.781 449.577 307.491C449.577 310.201 451.771 312.397 454.479 312.397Z" fill="#FF63D0"/>
<path d="M451.392 315.669C451.392 316.673 450.579 317.486 449.577 317.486C448.574 317.486 447.761 316.673 447.761 315.669C447.761 314.665 448.574 313.851 449.577 313.851C450.579 313.851 451.392 314.665 451.392 315.669Z" fill="#FF63D0"/>
<path d="M468.639 313.125C469.341 313.125 469.91 312.555 469.91 311.852C469.91 311.15 469.341 310.58 468.639 310.58C467.938 310.58 467.369 311.15 467.369 311.852C467.369 312.555 467.938 313.125 468.639 313.125Z" fill="#FF63D0"/>
<path d="M146.751 169.566C155.575 169.566 162.728 162.407 162.728 153.575C162.728 144.743 155.575 137.583 146.751 137.583C137.928 137.583 130.775 144.743 130.775 153.575C130.775 162.407 137.928 169.566 146.751 169.566Z" fill="#FF63D0"/>
<path d="M99.9119 162.297C105.527 162.297 110.079 157.741 110.079 152.121C110.079 146.501 105.527 141.945 99.9119 141.945C94.2969 141.945 89.7451 146.501 89.7451 152.121C89.7451 157.741 94.2969 162.297 99.9119 162.297Z" fill="#FF63D0"/>
<path d="M134.407 102.33C134.407 105.14 132.131 107.418 129.323 107.418C126.516 107.418 124.24 105.14 124.24 102.33C124.24 99.5197 126.516 97.2417 129.323 97.2417C132.131 97.2417 134.407 99.5197 134.407 102.33Z" fill="#FF63D0"/>
<path d="M242.247 135.039C244.453 135.039 246.241 133.249 246.241 131.042C246.241 128.834 244.453 127.044 242.247 127.044C240.041 127.044 238.253 128.834 238.253 131.042C238.253 133.249 240.041 135.039 242.247 135.039Z" fill="#FF63D0"/>
<path d="M234.258 122.319C234.258 123.323 233.446 124.137 232.443 124.137C231.44 124.137 230.627 123.323 230.627 122.319C230.627 121.316 231.44 120.502 232.443 120.502C233.446 120.502 234.258 121.316 234.258 122.319Z" fill="#FF63D0"/>
<path d="M208.479 404.349C209.481 404.349 210.294 403.535 210.294 402.531C210.294 401.527 209.481 400.713 208.479 400.713C207.476 400.713 206.663 401.527 206.663 402.531C206.663 403.535 207.476 404.349 208.479 404.349Z" fill="#FF63D0"/>
<path d="M229.538 135.766C229.538 137.171 228.401 138.31 226.997 138.31C225.593 138.31 224.455 137.171 224.455 135.766C224.455 134.361 225.593 133.222 226.997 133.222C228.401 133.222 229.538 134.361 229.538 135.766Z" fill="#FF63D0"/>
<path d="M251.687 130.679C252.69 130.679 253.503 129.865 253.503 128.861C253.503 127.858 252.69 127.044 251.687 127.044C250.684 127.044 249.872 127.858 249.872 128.861C249.872 129.865 250.684 130.679 251.687 130.679Z" fill="#FF63D0"/>
<path d="M193.228 146.124C193.228 150.44 189.733 153.938 185.421 153.938C181.11 153.938 177.615 150.44 177.615 146.124C177.615 141.809 181.11 138.31 185.421 138.31C189.733 138.31 193.228 141.809 193.228 146.124Z" fill="#FF63D0"/>
<path d="M162.546 360.008C166.857 360.008 170.353 356.51 170.353 352.194C170.353 347.879 166.857 344.38 162.546 344.38C158.234 344.38 154.739 347.879 154.739 352.194C154.739 356.51 158.234 360.008 162.546 360.008Z" fill="#FF63D0"/>
<path fill-rule="evenodd" clip-rule="evenodd" d="M407.094 254.801C407.094 247.762 405.475 242.437 402.965 237.99C400.665 233.916 397.653 230.671 394.929 227.737C394.756 227.55 394.584 227.365 394.414 227.181C391.482 224.016 388.868 221.085 386.921 217.327C385.011 213.638 383.668 208.984 383.668 202.393C383.668 194.853 386.228 189.346 389.149 183.208L389.278 182.937C392.146 176.914 395.335 170.216 395.335 161.175C395.335 150.465 391.819 140.199 383.141 132.671C374.535 125.204 361.346 120.865 342.852 120.865C323.803 120.865 312.449 129.085 301.862 136.75L301.532 136.989C290.93 144.664 280.983 151.733 263.811 151.733C255.651 151.733 248.655 148.378 242.571 143.968C238.382 140.932 234.976 137.7 231.867 134.75C230.295 133.259 228.799 131.839 227.316 130.554C226.269 129.646 225.208 128.796 224.159 128.113C223.135 127.447 221.93 126.811 220.607 126.523C219.189 126.215 217.589 126.304 216.082 127.172C214.663 127.989 213.728 129.268 213.088 130.558C211.854 133.041 211.155 136.719 210.716 141.472C210.265 146.348 210.057 152.811 210.057 161.175C210.057 178.225 216.014 187.153 222.103 193.266C223.52 194.689 224.93 195.947 226.176 197.059L226.292 197.162C227.602 198.331 228.686 199.305 229.592 200.262C231.355 202.125 232.031 203.495 232.031 205.116C232.031 207.565 230.821 210.233 228.252 213.955C227.178 215.511 225.957 217.129 224.602 218.925C224.366 219.238 224.126 219.556 223.882 219.88C222.259 222.036 220.5 224.405 218.76 227.015C211.704 237.601 205.1 251.979 206.991 274.241C208.753 294.996 222.026 311.006 239.435 321.696C256.835 332.381 278.75 338.03 298.868 338.03C313.995 338.03 324.316 335.661 331.849 332.056C337.167 329.511 340.949 326.417 343.95 323.377C346.193 329.036 350.634 335.109 356.653 340.14C364.675 346.845 375.854 352.012 389.359 352.012C391.559 352.012 393.299 350.913 394.38 349.282C395.315 347.871 395.705 346.167 395.893 344.652C396.276 341.574 396.009 337.508 395.577 333.26C395.322 330.757 395.005 328.132 394.681 325.45L394.681 325.449C393.858 318.636 392.991 311.454 392.991 304.984C392.991 297.38 395.585 292.258 398.825 285.864L398.831 285.851C399.102 285.317 399.377 284.774 399.656 284.22C403.298 276.971 407.094 268.466 407.094 254.801ZM342.724 319.397C342.772 319.344 342.821 319.291 342.869 319.238C343.249 318.821 343.618 318.405 343.979 317.992C344.208 317.73 344.433 317.469 344.655 317.21C344.038 317.93 343.398 318.662 342.724 319.397ZM263.811 155.365C263.811 155.365 263.811 155.365 263.811 155.365Z" fill="#4A008E"/>
<path d="M281.92 243.322C284.712 269.087 299.658 273.389 308.522 273.389C319.599 273.389 330.132 264.31 330.132 253.416C330.132 247.2 320.675 246.54 312.551 245.973C306.435 245.547 301.076 245.173 301.076 242.521C301.076 239.155 310.473 234.06 321.905 230.123C327.005 228.82 331.242 227.627 331.3 227.287C338.115 225.515 344.956 224.364 350.471 224.364C364.818 224.364 389.697 229.811 389.697 251.963C389.697 263.508 385.604 273.129 381.683 282.344C378.081 290.81 374.624 298.933 374.624 307.889C374.624 317.678 377.062 323.985 378.527 327.773C379.86 331.222 380.386 332.583 377.53 332.583C364.238 332.583 351.107 308.282 349.538 297.334C349.442 296.664 348.541 296.356 348.102 296.871C341.409 304.722 326.812 320.599 302.529 320.599C271.546 320.599 229.496 304.898 221.982 273.766C236.611 265.475 260.648 252.666 281.92 243.322Z" fill="white"/>
<path d="M281.579 238.999C281.503 237.513 281.463 235.964 281.463 234.35C281.463 214.014 309.611 185.506 317.965 185.506C323.195 185.506 319.385 195.257 315.804 204.42C313.666 209.893 311.609 215.157 311.609 218.008C311.609 220.914 366.969 211.195 364.818 205.843C359.494 192.593 366.503 182.272 372.035 174.127C374.994 169.77 377.53 166.036 377.53 162.809C377.53 153.549 367.724 138.296 344.297 138.296C333.475 138.296 321.568 144.884 308.755 151.972C293.831 160.228 277.678 169.164 260.579 169.164C243.877 169.164 233.745 157.779 228.471 151.853C223.711 146.503 222.908 145.601 224.804 161.538C227.27 182.276 241.048 188.463 250.765 192.826C256.34 195.33 260.579 197.233 260.579 200.94C260.579 204.414 255.938 208.439 249.826 213.738C238.048 223.951 220.809 238.9 220.809 263.766C220.809 264.454 220.824 265.135 220.856 265.811C234.505 258.648 258.281 247.308 281.579 238.999Z" fill="white"/>
<path d="M145.209 453.411C139.762 453.411 135.375 451.867 132.046 448.778C128.778 445.628 127.144 441.448 127.144 436.239V405.528C127.144 400.319 128.778 396.17 132.046 393.081C135.375 389.931 139.762 388.356 145.209 388.356C150.656 388.356 155.043 389.931 158.372 393.081C161.7 396.23 163.365 400.41 163.365 405.619V409.072C163.365 409.375 163.244 409.647 163.002 409.89C162.82 410.071 162.578 410.162 162.275 410.162H151.654C151.352 410.162 151.079 410.071 150.837 409.89C150.656 409.647 150.565 409.375 150.565 409.072V405.438C150.565 403.62 150.081 402.167 149.112 401.076C148.144 399.925 146.843 399.35 145.209 399.35C143.635 399.35 142.365 399.925 141.396 401.076C140.428 402.167 139.944 403.62 139.944 405.438V436.33C139.944 438.147 140.428 439.631 141.396 440.782C142.365 441.872 143.635 442.417 145.209 442.417C146.843 442.417 148.144 441.872 149.112 440.782C150.081 439.631 150.565 438.147 150.565 436.33V429.061C150.565 428.758 150.414 428.607 150.111 428.607H146.117C145.814 428.607 145.542 428.516 145.3 428.334C145.118 428.092 145.027 427.819 145.027 427.516V419.43C145.027 419.127 145.118 418.885 145.3 418.703C145.542 418.461 145.814 418.34 146.117 418.34H162.275C162.578 418.34 162.82 418.461 163.002 418.703C163.244 418.885 163.365 419.127 163.365 419.43V436.239C163.365 441.448 161.7 445.628 158.372 448.778C155.043 451.867 150.656 453.411 145.209 453.411Z" fill="#4A008E"/>
<path d="M206.375 452.685C205.71 452.685 205.286 452.382 205.104 451.776L198.114 426.699C197.993 426.456 197.842 426.335 197.66 426.335H194.574C194.271 426.335 194.12 426.487 194.12 426.79V451.594C194.12 451.897 193.999 452.17 193.757 452.412C193.575 452.594 193.333 452.685 193.031 452.685H182.41C182.107 452.685 181.835 452.594 181.593 452.412C181.411 452.17 181.32 451.897 181.32 451.594V390.173C181.32 389.87 181.411 389.628 181.593 389.446C181.835 389.204 182.107 389.083 182.41 389.083H200.747C204.076 389.083 207.041 389.901 209.643 391.536C212.246 393.111 214.243 395.352 215.635 398.26C217.087 401.167 217.813 404.499 217.813 408.254C217.813 411.828 217.117 414.978 215.725 417.704C214.394 420.429 212.518 422.549 210.097 424.064C209.976 424.124 209.885 424.215 209.825 424.336C209.764 424.397 209.764 424.488 209.825 424.609L218.176 451.413L218.267 451.776C218.267 452.382 217.934 452.685 217.269 452.685H206.375ZM194.574 400.077C194.271 400.077 194.12 400.228 194.12 400.531V416.068C194.12 416.371 194.271 416.522 194.574 416.522H198.659C200.535 416.522 202.048 415.796 203.198 414.342C204.408 412.827 205.014 410.829 205.014 408.345C205.014 405.801 204.408 403.802 203.198 402.348C202.048 400.834 200.535 400.077 198.659 400.077H194.574Z" fill="#4A008E"/>
<path d="M262.076 452.685C261.349 452.685 260.956 452.351 260.896 451.685L259.443 442.963C259.443 442.66 259.262 442.508 258.898 442.508H247.37C247.006 442.508 246.825 442.66 246.825 442.963L245.372 451.685C245.312 452.351 244.919 452.685 244.192 452.685H233.571C232.784 452.685 232.482 452.291 232.663 451.503L246.008 390.082C246.129 389.416 246.522 389.083 247.188 389.083H259.443C260.109 389.083 260.502 389.416 260.623 390.082L273.877 451.503L273.968 451.867C273.968 452.412 273.635 452.685 272.969 452.685H262.076ZM248.64 432.15C248.64 432.453 248.761 432.605 249.004 432.605H257.174C257.476 432.605 257.597 432.453 257.537 432.15L253.27 407.346C253.21 407.164 253.119 407.073 252.998 407.073C252.877 407.073 252.786 407.164 252.725 407.346L248.64 432.15Z" fill="#4A008E"/>
<path d="M323.299 398.987C323.299 399.289 323.178 399.562 322.936 399.804C322.754 399.986 322.512 400.077 322.209 400.077H303.327C303.025 400.077 302.873 400.228 302.873 400.531V414.887C302.873 415.19 303.025 415.341 303.327 415.341H314.13C314.433 415.341 314.675 415.462 314.856 415.705C315.098 415.886 315.219 416.129 315.219 416.432V425.245C315.219 425.548 315.098 425.82 314.856 426.063C314.675 426.244 314.433 426.335 314.13 426.335H303.327C303.025 426.335 302.873 426.487 302.873 426.79V451.594C302.873 451.897 302.752 452.17 302.51 452.412C302.329 452.594 302.087 452.685 301.784 452.685H291.163C290.86 452.685 290.588 452.594 290.346 452.412C290.164 452.17 290.074 451.897 290.074 451.594V390.173C290.074 389.87 290.164 389.628 290.346 389.446C290.588 389.204 290.86 389.083 291.163 389.083H322.209C322.512 389.083 322.754 389.204 322.936 389.446C323.178 389.628 323.299 389.87 323.299 390.173V398.987Z" fill="#4A008E"/>
<path d="M372.401 398.987C372.401 399.289 372.28 399.562 372.037 399.804C371.856 399.986 371.614 400.077 371.311 400.077H352.429C352.127 400.077 351.975 400.228 351.975 400.531V414.887C351.975 415.19 352.127 415.341 352.429 415.341H363.232C363.535 415.341 363.777 415.462 363.958 415.705C364.2 415.886 364.321 416.129 364.321 416.432V425.245C364.321 425.548 364.2 425.82 363.958 426.063C363.777 426.244 363.535 426.335 363.232 426.335H352.429C352.127 426.335 351.975 426.487 351.975 426.79V451.594C351.975 451.897 351.854 452.17 351.612 452.412C351.431 452.594 351.189 452.685 350.886 452.685H340.265C339.962 452.685 339.69 452.594 339.448 452.412C339.266 452.17 339.176 451.897 339.176 451.594V390.173C339.176 389.87 339.266 389.628 339.448 389.446C339.69 389.204 339.962 389.083 340.265 389.083H371.311C371.614 389.083 371.856 389.204 372.037 389.446C372.28 389.628 372.401 389.87 372.401 390.173V398.987Z" fill="#4A008E"/>
<path d="M389.367 452.685C389.064 452.685 388.792 452.594 388.55 452.412C388.368 452.17 388.278 451.897 388.278 451.594V390.173C388.278 389.87 388.368 389.628 388.55 389.446C388.792 389.204 389.064 389.083 389.367 389.083H399.988C400.291 389.083 400.533 389.204 400.714 389.446C400.956 389.628 401.077 389.87 401.077 390.173V451.594C401.077 451.897 400.956 452.17 400.714 452.412C400.533 452.594 400.291 452.685 399.988 452.685H389.367Z" fill="#4A008E"/>
<path d="M455.315 389.083C455.617 389.083 455.859 389.204 456.041 389.446C456.283 389.628 456.404 389.87 456.404 390.173V398.987C456.404 399.289 456.283 399.562 456.041 399.804C455.859 399.986 455.617 400.077 455.315 400.077H443.967C443.665 400.077 443.513 400.228 443.513 400.531V451.594C443.513 451.897 443.392 452.17 443.15 452.412C442.969 452.594 442.727 452.685 442.424 452.685H431.803C431.5 452.685 431.228 452.594 430.986 452.412C430.805 452.17 430.714 451.897 430.714 451.594V400.531C430.714 400.228 430.562 400.077 430.26 400.077H419.366C419.064 400.077 418.791 399.986 418.549 399.804C418.368 399.562 418.277 399.289 418.277 398.987V390.173C418.277 389.87 418.368 389.628 418.549 389.446C418.791 389.204 419.064 389.083 419.366 389.083H455.315Z" fill="#4A008E"/>
<path d="M474.539 452.685C474.237 452.685 473.964 452.594 473.722 452.412C473.541 452.17 473.45 451.897 473.45 451.594V390.173C473.45 389.87 473.541 389.628 473.722 389.446C473.964 389.204 474.237 389.083 474.539 389.083H485.16C485.463 389.083 485.705 389.204 485.886 389.446C486.129 389.628 486.25 389.87 486.25 390.173V451.594C486.25 451.897 486.129 452.17 485.886 452.412C485.705 452.594 485.463 452.685 485.16 452.685H474.539Z" fill="#4A008E"/>
</svg>
