<svg width="732" height="832" viewBox="0 0 732 832" fill="none" xmlns="http://www.w3.org/2000/svg">
<path fill-rule="evenodd" clip-rule="evenodd" d="M677.386 421.047C685.554 435.517 690.819 452.838 690.819 475.739C690.819 520.197 678.471 547.867 666.622 571.449C665.737 573.212 664.861 574.94 664 576.64L663.92 576.799C653.382 597.602 644.941 614.264 644.941 639.001C644.941 660.052 647.763 683.416 650.44 705.583L650.44 705.586C651.494 714.312 652.526 722.852 653.354 730.993C654.76 744.815 655.627 758.042 654.384 768.055C653.771 772.985 652.503 778.529 649.462 783.117C645.943 788.426 640.285 792 633.126 792C589.196 792 552.832 775.192 526.734 753.377C507.154 737.009 492.708 717.251 485.412 698.842C475.651 708.732 463.347 718.798 446.048 727.077C421.543 738.804 387.968 746.514 338.761 746.514C273.319 746.514 202.027 728.135 145.426 693.373C88.7959 658.592 45.6188 606.509 39.8851 538.985C33.7352 466.559 55.2173 419.781 78.1707 385.341C83.8295 376.85 89.5525 369.143 94.8331 362.128C95.6264 361.075 96.4067 360.04 97.1738 359.023C101.582 353.18 105.553 347.917 109.047 342.855C117.406 330.745 121.341 322.065 121.341 314.099C121.341 308.822 119.143 304.365 113.407 298.305C110.459 295.191 106.934 292.023 102.673 288.221L102.296 287.885C98.2409 284.267 93.6544 280.175 89.0443 275.546C69.2372 255.658 49.8609 226.612 49.8609 171.142C49.8609 143.932 50.5367 122.904 52.0019 107.041C53.43 91.5793 55.7057 79.614 59.7184 71.534C61.8029 67.3368 64.8439 63.1761 69.4593 60.5183C74.3615 57.6953 79.5667 57.406 84.1774 58.4081C88.4837 59.344 92.4023 61.4122 95.7334 63.5809C99.1459 65.8025 102.597 68.5685 106.002 71.5202C110.826 75.7033 115.693 80.3214 120.807 85.1739C130.922 94.7704 142.002 105.284 155.626 115.161C175.417 129.508 198.178 140.424 224.721 140.424C280.58 140.424 312.938 117.425 347.427 92.4567L348.499 91.6805C382.94 66.7425 419.873 40 481.84 40C542.002 40 584.904 54.117 612.901 78.4084C641.128 102.899 652.566 136.3 652.566 171.142C652.566 200.555 642.192 222.346 632.863 241.941L632.443 242.824C622.941 262.791 614.613 280.708 614.613 305.238C614.613 326.681 618.984 341.824 625.198 353.824C631.529 366.051 640.035 375.587 649.57 385.883C650.124 386.482 650.684 387.084 651.247 387.691C660.107 397.237 669.905 407.793 677.386 421.047ZM282.144 409.207C282.144 414.457 282.272 419.495 282.52 424.329C206.731 451.362 129.389 488.254 84.988 511.558C84.8865 509.36 84.8351 507.143 84.8351 504.905C84.8351 424.008 140.914 375.375 179.229 342.148C199.11 324.907 214.208 311.813 214.208 300.512C214.208 288.452 200.419 282.259 182.283 274.115C150.672 259.918 105.855 239.791 97.8315 172.324C91.6656 120.475 94.2757 123.409 109.762 140.813C126.918 160.094 159.875 197.134 214.208 197.134C269.832 197.134 322.377 168.062 370.924 141.202C412.605 118.141 451.338 96.7101 486.542 96.7101C562.748 96.7101 594.648 146.331 594.648 176.459C594.648 186.957 586.398 199.106 576.773 213.28C558.778 239.779 535.976 273.356 553.296 316.462C560.292 333.873 380.208 365.493 380.208 356.041C380.208 346.763 386.898 329.639 393.855 311.834C405.503 282.022 417.897 250.3 400.884 250.3C373.709 250.3 282.144 343.045 282.144 409.207ZM370.165 536.214C341.332 536.214 292.711 522.218 283.629 438.394C214.433 468.794 136.241 510.466 88.6508 537.439C113.094 638.721 249.883 689.804 350.67 689.804C429.664 689.804 477.148 638.15 498.919 612.608C500.347 610.932 503.279 611.935 503.591 614.114C508.693 649.73 551.411 728.792 594.648 728.792C603.939 728.792 602.227 724.364 597.89 713.144C593.127 700.82 585.196 680.301 585.196 648.452C585.196 619.317 596.439 592.89 608.158 565.345C620.911 535.368 634.228 504.066 634.228 466.507C634.228 394.438 553.296 376.716 506.627 376.716C488.686 376.716 466.432 380.461 444.262 386.227C444.072 387.335 430.29 391.213 413.7 395.454C376.514 408.261 345.944 424.836 345.944 435.789C345.944 444.415 363.378 445.632 383.271 447.02C409.698 448.865 440.464 451.012 440.464 471.233C440.464 506.677 406.2 536.214 370.165 536.214Z" fill="#333333"/>
</svg>
